<?xml version="1.0" encoding="utf-8"?>
<!-- Generator: Adobe Illustrator 25.1.0, SVG Export Plug-In . SVG Version: 6.00 Build 0)  -->
<svg version="1.1" xmlns="http://www.w3.org/2000/svg" xmlns:xlink="http://www.w3.org/1999/xlink" x="0px" y="0px"
	 viewBox="0 0 687.84 200.43" style="enable-background:new 0 0 687.84 200.43;" xml:space="preserve">
<style type="text/css">
	.st0{display:none;}
	.st1{display:inline;fill:#323E48;}
	.st2{display:inline;}
	.st3{fill:#3C3C3B;}
	.st4{fill:#662483;}
	.st5{display:inline;fill:none;stroke:url(#SVGID_1_);stroke-width:3.4524;stroke-miterlimit:10;}
	.st6{display:inline;fill:#3C3C3B;}
	.st7{display:inline;fill:none;stroke:#3C3C3B;stroke-width:4.3308;stroke-linecap:round;stroke-miterlimit:10;}
	.st8{fill:#FFFFFF;}
	.st9{fill:none;stroke:url(#SVGID_2_);stroke-width:3.4524;stroke-miterlimit:10;}
	.st10{fill:none;stroke:#FFFFFF;stroke-width:4.3308;stroke-linecap:round;stroke-miterlimit:10;}
</style>
<g id="Capa_1" class="st0">
	<rect x="-843.7" y="-129.75" class="st1" width="798.67" height="318.49"/>
	<g class="st2">
		<path class="st3" d="M-744.95-222.11h-7.17v3.88h6.77v5.11h-6.77v4h7.17v5.11h-13.2v-23.2h13.2V-222.11z"/>
		<path class="st3" d="M-721.38-221.28c-0.66-0.53-1.31-0.93-1.97-1.18c-0.66-0.26-1.29-0.38-1.91-0.38c-0.78,0-1.42,0.18-1.91,0.55
			s-0.74,0.85-0.74,1.45c0,0.41,0.12,0.75,0.37,1.02c0.25,0.27,0.57,0.5,0.97,0.69c0.4,0.2,0.85,0.36,1.35,0.51s1,0.3,1.49,0.46
			c1.97,0.66,3.41,1.53,4.32,2.63c0.91,1.1,1.37,2.53,1.37,4.29c0,1.19-0.2,2.27-0.6,3.23c-0.4,0.96-0.98,1.79-1.75,2.48
			c-0.77,0.69-1.71,1.22-2.83,1.6c-1.12,0.38-2.38,0.57-3.8,0.57c-2.93,0-5.65-0.87-8.15-2.62l2.58-4.86c0.9,0.8,1.79,1.4,2.68,1.78
			c0.88,0.39,1.75,0.58,2.62,0.58c0.98,0,1.72-0.23,2.2-0.68s0.72-0.96,0.72-1.54c0-0.35-0.06-0.65-0.18-0.91
			c-0.12-0.26-0.33-0.49-0.62-0.71c-0.29-0.22-0.66-0.42-1.12-0.6s-1.02-0.39-1.68-0.62c-0.78-0.25-1.54-0.52-2.29-0.82
			c-0.75-0.3-1.42-0.69-2-1.18c-0.58-0.49-1.06-1.11-1.42-1.86c-0.36-0.75-0.54-1.7-0.54-2.85c0-1.15,0.19-2.19,0.57-3.12
			c0.38-0.93,0.91-1.73,1.6-2.4c0.69-0.67,1.53-1.18,2.52-1.55c0.99-0.37,2.11-0.55,3.34-0.55c1.15,0,2.35,0.16,3.6,0.48
			c1.25,0.32,2.45,0.78,3.6,1.4L-721.38-221.28z"/>
		<path class="st3" d="M-691.04-219.46c-1.4-1.7-3.12-2.55-5.17-2.55c-0.9,0-1.74,0.16-2.51,0.49c-0.77,0.33-1.43,0.77-1.98,1.34
			s-0.99,1.24-1.31,2.02c-0.32,0.78-0.48,1.62-0.48,2.52c0,0.92,0.16,1.77,0.48,2.55c0.32,0.78,0.76,1.46,1.32,2.03
			c0.56,0.57,1.23,1.03,1.98,1.35c0.76,0.33,1.58,0.49,2.46,0.49c1.93,0,3.66-0.82,5.2-2.46v7.14l-0.62,0.22
			c-0.92,0.33-1.78,0.57-2.58,0.72s-1.59,0.23-2.37,0.23c-1.6,0-3.13-0.3-4.6-0.91c-1.47-0.6-2.76-1.46-3.88-2.55
			c-1.12-1.1-2.02-2.4-2.69-3.91c-0.68-1.51-1.02-3.15-1.02-4.94s0.33-3.42,1-4.91c0.67-1.49,1.56-2.77,2.68-3.85
			c1.12-1.08,2.42-1.92,3.89-2.52s3.03-0.91,4.65-0.91c0.92,0,1.83,0.1,2.72,0.29c0.89,0.2,1.83,0.5,2.81,0.91V-219.46z"/>
		<path class="st3" d="M-661.44-204.02h-7.51l-5.75-8.92v8.92h-6.03v-23.2h9.38c1.29,0,2.42,0.19,3.38,0.57
			c0.96,0.38,1.76,0.9,2.38,1.55c0.63,0.66,1.1,1.42,1.42,2.28c0.32,0.86,0.48,1.78,0.48,2.77c0,1.76-0.43,3.2-1.28,4.29
			c-0.85,1.1-2.11,1.84-3.77,2.23L-661.44-204.02z M-674.7-216.85h1.14c1.19,0,2.1-0.25,2.74-0.74s0.95-1.2,0.95-2.12
			c0-0.92-0.32-1.63-0.95-2.12c-0.64-0.49-1.55-0.74-2.74-0.74h-1.14V-216.85z"/>
		<path class="st3" d="M-646.4-227.21v23.2h-6.03v-23.2H-646.4z"/>
		<path class="st3" d="M-626.24-222.11v18.09h-6.03v-18.09h-4.95v-5.11h15.94v5.11H-626.24z"/>
		<path class="st3" d="M-613.38-215.61c0-1.72,0.32-3.33,0.95-4.82c0.64-1.49,1.52-2.78,2.65-3.89c1.13-1.11,2.48-1.97,4.05-2.6
			c1.57-0.63,3.3-0.94,5.18-0.94c1.87,0,3.59,0.31,5.17,0.94c1.58,0.63,2.94,1.49,4.08,2.6c1.14,1.11,2.03,2.41,2.66,3.89
			c0.64,1.49,0.95,3.09,0.95,4.82s-0.32,3.33-0.95,4.82s-1.52,2.78-2.66,3.89c-1.14,1.11-2.5,1.97-4.08,2.6
			c-1.58,0.63-3.3,0.94-5.17,0.94c-1.89,0-3.62-0.31-5.18-0.94s-2.92-1.49-4.05-2.6c-1.13-1.11-2.01-2.4-2.65-3.89
			S-613.38-213.89-613.38-215.61z M-607.08-215.61c0,0.92,0.17,1.77,0.52,2.55c0.35,0.78,0.82,1.46,1.42,2.03
			c0.59,0.57,1.29,1.02,2.08,1.34c0.79,0.32,1.62,0.48,2.51,0.48c0.88,0,1.72-0.16,2.51-0.48c0.79-0.32,1.49-0.76,2.09-1.34
			c0.6-0.57,1.08-1.25,1.43-2.03c0.35-0.78,0.52-1.63,0.52-2.55s-0.17-1.77-0.52-2.55c-0.35-0.78-0.83-1.46-1.43-2.03
			c-0.61-0.57-1.3-1.02-2.09-1.34c-0.79-0.32-1.63-0.48-2.51-0.48c-0.88,0-1.72,0.16-2.51,0.48c-0.79,0.32-1.48,0.76-2.08,1.34
			c-0.59,0.57-1.07,1.25-1.42,2.03C-606.9-217.39-607.08-216.54-607.08-215.61z"/>
		<path class="st3" d="M-558.09-204.02h-7.51l-5.75-8.92v8.92h-6.03v-23.2h9.38c1.29,0,2.42,0.19,3.38,0.57
			c0.96,0.38,1.76,0.9,2.38,1.55c0.62,0.66,1.1,1.42,1.41,2.28s0.48,1.78,0.48,2.77c0,1.76-0.43,3.2-1.28,4.29
			c-0.85,1.1-2.11,1.84-3.77,2.23L-558.09-204.02z M-571.35-216.85h1.14c1.19,0,2.1-0.25,2.74-0.74c0.63-0.49,0.95-1.2,0.95-2.12
			c0-0.92-0.32-1.63-0.95-2.12c-0.64-0.49-1.55-0.74-2.74-0.74h-1.14V-216.85z"/>
		<path class="st3" d="M-543.05-227.21v23.2h-6.03v-23.2H-543.05z"/>
		<path class="st3" d="M-532.74-215.61c0-1.72,0.32-3.33,0.95-4.82c0.63-1.49,1.52-2.78,2.65-3.89c1.13-1.11,2.48-1.97,4.05-2.6
			c1.57-0.63,3.3-0.94,5.18-0.94c1.87,0,3.59,0.31,5.17,0.94c1.58,0.63,2.94,1.49,4.08,2.6c1.14,1.11,2.03,2.41,2.66,3.89
			c0.64,1.49,0.95,3.09,0.95,4.82s-0.32,3.33-0.95,4.82s-1.52,2.78-2.66,3.89c-1.14,1.11-2.5,1.97-4.08,2.6s-3.3,0.94-5.17,0.94
			c-1.89,0-3.62-0.31-5.18-0.94s-2.92-1.49-4.05-2.6c-1.13-1.11-2.01-2.4-2.65-3.89C-532.42-212.29-532.74-213.89-532.74-215.61z
			 M-526.43-215.61c0,0.92,0.17,1.77,0.52,2.55c0.35,0.78,0.82,1.46,1.42,2.03c0.59,0.57,1.29,1.02,2.08,1.34
			c0.79,0.32,1.63,0.48,2.51,0.48s1.72-0.16,2.51-0.48c0.79-0.32,1.49-0.76,2.09-1.34c0.61-0.57,1.08-1.25,1.43-2.03
			c0.35-0.78,0.52-1.63,0.52-2.55s-0.17-1.77-0.52-2.55c-0.35-0.78-0.83-1.46-1.43-2.03c-0.6-0.57-1.3-1.02-2.09-1.34
			c-0.79-0.32-1.63-0.48-2.51-0.48s-1.72,0.16-2.51,0.48c-0.79,0.32-1.48,0.76-2.08,1.34c-0.6,0.57-1.07,1.25-1.42,2.03
			C-526.26-217.39-526.43-216.54-526.43-215.61z"/>
		<path class="st4" d="M-465.3-207.44c-1.9,2.28-4.38,3.42-7.45,3.42h-7.54v-22.63h7.54c3.04,0,5.51,1.14,7.42,3.42
			c1.8,2.13,2.69,4.75,2.69,7.86C-462.64-212.23-463.53-209.59-465.3-207.44z M-466.26-222.33c-1.65-2.03-3.81-3.04-6.5-3.04h-6.27
			v20.06h6.27c2.32,0,4.34-0.87,6.05-2.6c1.84-1.86,2.76-4.34,2.76-7.45C-463.94-218.13-464.71-220.45-466.26-222.33z"/>
		<path class="st4" d="M-453.52-204.02v-22.63h1.27v22.63H-453.52z"/>
		<path class="st4" d="M-422.87-207.15c-2.18,2.3-5.06,3.45-8.65,3.45c-3.42,0-6.21-1.08-8.37-3.23c-2.18-2.18-3.26-4.98-3.26-8.4
			c0-3.38,1.09-6.16,3.26-8.34c2.2-2.2,4.99-3.3,8.37-3.3c4.06,0,7.25,1.55,9.57,4.66l-1.05,0.79c-2.03-2.79-4.87-4.18-8.53-4.18
			c-2.98,0-5.45,0.98-7.42,2.95c-1.96,1.97-2.95,4.44-2.95,7.42c0,3,0.97,5.47,2.92,7.42c1.99,1.94,4.47,2.92,7.45,2.92
			c3.19,0,5.76-1.07,7.7-3.2c1.48-1.61,2.32-3.42,2.54-5.45h-7.48v-1.3h8.91C-419.86-211.86-420.86-209.27-422.87-207.15z"/>
		<path class="st4" d="M-410.48-204.02v-22.63h1.27v22.63H-410.48z"/>
		<path class="st4" d="M-394.35-225.34v21.33h-1.3v-21.33h-5.01v-1.3h11.31v1.3H-394.35z"/>
		<path class="st4" d="M-367.47-204.02l-2.6-6.78h-10.3l-2.63,6.78h-1.27l9.03-23.36l9.06,23.36H-367.47z M-375.23-224.08
			l-4.63,11.98h9.25L-375.23-224.08z"/>
		<path class="st4" d="M-357.55-204.02v-22.63h1.27v21.33h6.37v1.3H-357.55z"/>
	</g>
	<linearGradient id="SVGID_1_" gradientUnits="userSpaceOnUse" x1="-848.3295" y1="-215.1991" x2="-787.5055" y2="-215.1991">
		<stop  offset="0.5761" style="stop-color:#36A9E1"/>
		<stop  offset="1" style="stop-color:#662483"/>
	</linearGradient>
	<path class="st5" d="M-818.85-179.11h-27.75v-72.18h27.75c16.36,0,29.62,13.26,29.62,29.62v12.94
		C-789.23-192.37-802.49-179.11-818.85-179.11z"/>
	<path class="st6" d="M-859.93-248.97l14.95-0.06c0.05,0,0.08-0.04,0.08-0.08v-3.83c0-0.05-0.04-0.08-0.08-0.08l-16.55,0.05
		c-8.84,0.03-15.99,7.2-15.99,16.04v44.5c0,8.36,6.79,15.12,15.14,15.09l17.39-0.06c0.05,0,0.08-0.04,0.08-0.08v-3.83
		c0-0.05-0.04-0.08-0.08-0.08h-15.7c-6.5,0-11.78-5.27-11.78-11.78v-4v-14.03h27.56v-3.95h-27.56v-21.25
		C-872.46-243.32-866.86-248.94-859.93-248.97z"/>
	<path class="st7" d="M-912.89-222.06c-1.06,6.97,1.04,10.43,4.63,10.02c3.84-0.44,3.45-8.9,12.6-6.97c2.92,0.61,3.03,2.9,6.81,5.25
		c1.89,1.18,5.67,0.87,12.93,0.84"/>
</g>
<g id="E">
	<path class="st8" d="M219,93.1h-7.17v3.88h6.77v5.11h-6.77v4H219v5.11h-13.2v-23.2H219V93.1z"/>
</g>
<g id="S">
	<path class="st8" d="M242.57,93.93c-0.66-0.53-1.31-0.93-1.97-1.18c-0.66-0.26-1.29-0.38-1.91-0.38c-0.78,0-1.42,0.18-1.91,0.55
		s-0.74,0.85-0.74,1.45c0,0.41,0.12,0.75,0.37,1.01c0.25,0.27,0.57,0.5,0.97,0.69c0.4,0.2,0.85,0.36,1.35,0.51s1,0.3,1.49,0.46
		c1.97,0.66,3.41,1.53,4.32,2.63c0.91,1.1,1.37,2.53,1.37,4.29c0,1.19-0.2,2.27-0.6,3.23s-0.98,1.79-1.75,2.48
		c-0.77,0.69-1.71,1.22-2.83,1.6c-1.12,0.38-2.38,0.57-3.8,0.57c-2.93,0-5.65-0.87-8.15-2.62l2.58-4.86c0.9,0.8,1.79,1.4,2.68,1.79
		c0.88,0.39,1.75,0.58,2.62,0.58c0.98,0,1.72-0.23,2.2-0.68s0.72-0.96,0.72-1.54c0-0.35-0.06-0.65-0.18-0.91
		c-0.12-0.26-0.33-0.49-0.62-0.71c-0.29-0.22-0.66-0.42-1.12-0.6s-1.02-0.39-1.68-0.62c-0.78-0.25-1.54-0.52-2.29-0.82
		c-0.75-0.3-1.42-0.69-2-1.18c-0.58-0.49-1.06-1.11-1.42-1.86c-0.36-0.75-0.54-1.7-0.54-2.85s0.19-2.19,0.57-3.12
		c0.38-0.93,0.91-1.73,1.6-2.4c0.69-0.67,1.53-1.18,2.52-1.55c0.99-0.37,2.11-0.55,3.34-0.55c1.15,0,2.35,0.16,3.6,0.48
		c1.25,0.32,2.45,0.79,3.6,1.4L242.57,93.93z"/>
</g>
<g id="C">
	<path class="st8" d="M272.91,95.74c-1.4-1.7-3.12-2.55-5.17-2.55c-0.9,0-1.74,0.17-2.51,0.49c-0.77,0.33-1.43,0.78-1.98,1.34
		c-0.55,0.56-0.99,1.24-1.31,2.02c-0.32,0.78-0.48,1.62-0.48,2.52c0,0.92,0.16,1.77,0.48,2.55c0.32,0.78,0.76,1.46,1.32,2.03
		c0.56,0.57,1.23,1.03,1.98,1.35c0.76,0.33,1.58,0.49,2.46,0.49c1.93,0,3.66-0.82,5.2-2.46v7.14l-0.62,0.22
		c-0.92,0.33-1.78,0.57-2.58,0.72c-0.8,0.15-1.59,0.23-2.37,0.23c-1.6,0-3.13-0.3-4.6-0.91c-1.47-0.6-2.76-1.46-3.88-2.55
		c-1.12-1.1-2.02-2.4-2.69-3.91c-0.68-1.51-1.02-3.15-1.02-4.94c0-1.79,0.33-3.42,1-4.91c0.67-1.49,1.56-2.77,2.68-3.85
		c1.12-1.08,2.42-1.92,3.89-2.52c1.48-0.61,3.03-0.91,4.65-0.91c0.92,0,1.83,0.1,2.72,0.29c0.89,0.2,1.83,0.5,2.81,0.91V95.74z"/>
</g>
<g id="R">
	<path class="st8" d="M302.51,111.19H295l-5.75-8.92v8.92h-6.03v-23.2h9.38c1.29,0,2.42,0.19,3.38,0.57
		c0.96,0.38,1.76,0.9,2.38,1.55c0.63,0.66,1.1,1.42,1.42,2.28c0.32,0.86,0.48,1.79,0.48,2.77c0,1.76-0.43,3.2-1.28,4.29
		c-0.85,1.1-2.11,1.84-3.77,2.23L302.51,111.19z M289.25,98.36h1.14c1.19,0,2.1-0.25,2.74-0.74s0.95-1.2,0.95-2.12
		c0-0.92-0.32-1.63-0.95-2.12c-0.64-0.49-1.55-0.74-2.74-0.74h-1.14V98.36z"/>
</g>
<g id="I">
	<path class="st8" d="M317.55,87.99v23.2h-6.03v-23.2H317.55z"/>
</g>
<g id="T">
	<path class="st8" d="M337.71,93.1v18.09h-6.03V93.1h-4.95v-5.11h15.94v5.11H337.71z"/>
</g>
<g id="O">
	<path class="st8" d="M350.57,99.59c0-1.72,0.32-3.33,0.95-4.82s1.52-2.78,2.65-3.89c1.13-1.11,2.48-1.97,4.05-2.6
		c1.57-0.62,3.3-0.94,5.18-0.94c1.87,0,3.59,0.31,5.17,0.94c1.58,0.63,2.94,1.49,4.08,2.6c1.14,1.11,2.03,2.41,2.66,3.89
		s0.95,3.09,0.95,4.82c0,1.72-0.32,3.33-0.95,4.82s-1.52,2.78-2.66,3.89c-1.14,1.11-2.5,1.97-4.08,2.6
		c-1.58,0.63-3.3,0.94-5.17,0.94c-1.89,0-3.62-0.31-5.18-0.94c-1.57-0.62-2.92-1.49-4.05-2.6c-1.13-1.11-2.01-2.4-2.65-3.89
		S350.57,101.31,350.57,99.59z M356.87,99.59c0,0.92,0.17,1.77,0.52,2.55s0.82,1.46,1.42,2.03c0.59,0.58,1.29,1.02,2.08,1.34
		c0.79,0.32,1.62,0.48,2.51,0.48c0.88,0,1.72-0.16,2.51-0.48c0.79-0.32,1.49-0.76,2.09-1.34c0.6-0.57,1.08-1.25,1.43-2.03
		s0.52-1.63,0.52-2.55s-0.17-1.77-0.52-2.55s-0.83-1.46-1.43-2.03c-0.61-0.57-1.3-1.02-2.09-1.34c-0.79-0.32-1.63-0.48-2.51-0.48
		c-0.88,0-1.72,0.16-2.51,0.48c-0.79,0.32-1.48,0.76-2.08,1.34c-0.59,0.58-1.07,1.25-1.42,2.03S356.87,98.67,356.87,99.59z"/>
</g>
<g id="R_1_">
	<path class="st8" d="M405.86,111.19h-7.51l-5.75-8.92v8.92h-6.03v-23.2h9.38c1.29,0,2.42,0.19,3.38,0.57
		c0.96,0.38,1.76,0.9,2.38,1.55c0.62,0.66,1.1,1.42,1.41,2.28s0.48,1.79,0.48,2.77c0,1.76-0.43,3.2-1.28,4.29
		c-0.85,1.1-2.11,1.84-3.77,2.23L405.86,111.19z M392.6,98.36h1.14c1.19,0,2.1-0.25,2.74-0.74c0.63-0.49,0.95-1.2,0.95-2.12
		c0-0.92-0.32-1.63-0.95-2.12c-0.64-0.49-1.55-0.74-2.74-0.74h-1.14V98.36z"/>
</g>
<g id="I_1_">
	<path class="st8" d="M420.9,87.99v23.2h-6.03v-23.2H420.9z"/>
</g>
<g id="O_1_">
	<path class="st8" d="M431.21,99.59c0-1.72,0.32-3.33,0.95-4.82c0.63-1.49,1.52-2.78,2.65-3.89c1.13-1.11,2.48-1.97,4.05-2.6
		c1.57-0.62,3.3-0.94,5.18-0.94c1.87,0,3.59,0.31,5.17,0.94c1.58,0.63,2.94,1.49,4.08,2.6c1.14,1.11,2.03,2.41,2.66,3.89
		s0.95,3.09,0.95,4.82c0,1.72-0.32,3.33-0.95,4.82s-1.52,2.78-2.66,3.89s-2.5,1.97-4.08,2.6c-1.58,0.63-3.3,0.94-5.17,0.94
		c-1.89,0-3.62-0.31-5.18-0.94c-1.57-0.62-2.92-1.49-4.05-2.6s-2.01-2.4-2.65-3.89C431.53,102.92,431.21,101.31,431.21,99.59z
		 M437.52,99.59c0,0.92,0.17,1.77,0.52,2.55s0.82,1.46,1.42,2.03c0.59,0.58,1.29,1.02,2.08,1.34s1.63,0.48,2.51,0.48
		s1.72-0.16,2.51-0.48c0.79-0.32,1.49-0.76,2.09-1.34c0.61-0.57,1.08-1.25,1.43-2.03s0.52-1.63,0.52-2.55s-0.17-1.77-0.52-2.55
		s-0.83-1.46-1.43-2.03c-0.6-0.57-1.3-1.02-2.09-1.34c-0.79-0.32-1.63-0.48-2.51-0.48s-1.72,0.16-2.51,0.48s-1.48,0.76-2.08,1.34
		c-0.6,0.58-1.07,1.25-1.42,2.03S437.52,98.67,437.52,99.59z"/>
</g>
<g id="D">
	<path class="st8" d="M498.64,107.77c-1.9,2.28-4.38,3.42-7.45,3.42h-7.54V88.56h7.54c3.04,0,5.51,1.14,7.42,3.42
		c1.8,2.13,2.69,4.75,2.69,7.86C501.31,102.97,500.42,105.61,498.64,107.77z M497.69,92.87c-1.65-2.03-3.81-3.04-6.5-3.04h-6.27
		v20.06h6.27c2.32,0,4.34-0.87,6.05-2.6c1.84-1.86,2.76-4.34,2.76-7.45C500.01,97.08,499.24,94.75,497.69,92.87z"/>
</g>
<g id="I_2_">
	<path class="st8" d="M510.43,111.19V88.56h1.27v22.63H510.43z"/>
</g>
<g id="G">
	<path class="st8" d="M541.08,108.05c-2.18,2.3-5.06,3.45-8.65,3.45c-3.42,0-6.21-1.08-8.37-3.23c-2.18-2.18-3.26-4.98-3.26-8.4
		c0-3.38,1.09-6.16,3.26-8.33c2.2-2.2,4.99-3.3,8.37-3.3c4.06,0,7.25,1.55,9.57,4.66l-1.05,0.79c-2.03-2.79-4.87-4.18-8.53-4.18
		c-2.98,0-5.45,0.98-7.42,2.95s-2.95,4.44-2.95,7.42c0,3,0.97,5.47,2.92,7.42c1.99,1.94,4.47,2.92,7.45,2.92
		c3.19,0,5.76-1.07,7.7-3.2c1.48-1.61,2.32-3.42,2.54-5.45h-7.48v-1.3h8.91C544.09,103.34,543.09,105.94,541.08,108.05z"/>
</g>
<g id="I_3_">
	<path class="st8" d="M553.47,111.19V88.56h1.27v22.63H553.47z"/>
</g>
<g id="T_1_">
	<path class="st8" d="M569.6,89.86v21.33h-1.3V89.86h-5.01v-1.3h11.31v1.3H569.6z"/>
</g>
<g id="A">
	<path class="st8" d="M596.48,111.19l-2.6-6.78h-10.3l-2.63,6.78h-1.27l9.03-23.36l9.06,23.36H596.48z M588.71,91.13l-4.63,11.98
		h9.25L588.71,91.13z"/>
</g>
<g id="L">
	<path class="st8" d="M606.4,111.19V88.56h1.27v21.33h6.37v1.3H606.4z"/>
</g>
<g id="MOUSE1">
	<linearGradient id="SVGID_2_" gradientUnits="userSpaceOnUse" x1="115.6197" y1="100.0068" x2="176.4436" y2="100.0068">
		<stop  offset="0.5761" style="stop-color:#36A9E1"/>
		<stop  offset="1" style="stop-color:#662483"/>
	</linearGradient>
	<path class="st9" d="M145.09,136.1h-27.75V63.91h27.75c16.36,0,29.62,13.26,29.62,29.62v12.94
		C174.72,122.84,161.45,136.1,145.09,136.1z"/>
</g>
<g id="MOUSE2">
	<path class="st8" d="M104.02,66.24l14.95-0.06c0.05,0,0.08-0.04,0.08-0.08v-3.83c0-0.05-0.04-0.08-0.08-0.08l-16.55,0.05
		c-8.84,0.03-15.99,7.2-15.99,16.04v44.5c0,8.36,6.79,15.12,15.14,15.09l17.39-0.06c0.05,0,0.08-0.04,0.08-0.08v-3.83
		c0-0.05-0.04-0.08-0.08-0.08h-15.7c-6.5,0-11.78-5.27-11.78-11.78v-4v-14.03h27.56v-3.95H91.49V78.81
		C91.49,71.89,97.09,66.27,104.02,66.24z"/>
</g>
<g id="MOUSE3">
	<path class="st10" d="M51.06,93.15c-1.06,6.97,1.04,10.43,4.63,10.02c3.84-0.44,3.45-8.9,12.6-6.97c2.92,0.61,3.03,2.9,6.81,5.25
		c1.89,1.18,5.67,0.87,12.93,0.84"/>
</g>
</svg>
